<mxfile host="Electron" modified="2024-05-04T12:13:37.803Z" agent="Mozilla/5.0 (Windows NT 10.0; Win64; x64) AppleWebKit/537.36 (KHTML, like Gecko) draw.io/24.2.5 Chrome/120.0.6099.109 Electron/28.1.0 Safari/537.36" etag="oMGaQTqNmLumcaanKvE5" version="24.2.5" type="device">
  <diagram name="Seite-1" id="0zAra7QPFjdMf4FEWGYo">
    <mxGraphModel dx="2442" dy="2124" grid="1" gridSize="10" guides="1" tooltips="1" connect="1" arrows="1" fold="1" page="1" pageScale="1" pageWidth="827" pageHeight="1169" math="0" shadow="0">
      <root>
        <mxCell id="0" />
        <mxCell id="1" parent="0" />
        <mxCell id="uQmgaDGms-oXDXlYxXr7-83" value="" style="rounded=1;whiteSpace=wrap;html=1;" vertex="1" parent="1">
          <mxGeometry x="-410" y="-160" width="1380" height="920" as="geometry" />
        </mxCell>
        <mxCell id="uQmgaDGms-oXDXlYxXr7-28" value="" style="rounded=1;whiteSpace=wrap;html=1;" vertex="1" parent="1">
          <mxGeometry x="290" y="-10" width="620" height="260" as="geometry" />
        </mxCell>
        <mxCell id="uQmgaDGms-oXDXlYxXr7-2" value="Helm Release" style="rounded=1;whiteSpace=wrap;html=1;" vertex="1" parent="1">
          <mxGeometry x="310" width="140" height="30" as="geometry" />
        </mxCell>
        <mxCell id="uQmgaDGms-oXDXlYxXr7-1" value="" style="shape=mxgraph.signs.transportation.anchor_1;html=1;pointerEvents=1;fillColor=#000000;strokeColor=none;verticalLabelPosition=bottom;verticalAlign=top;align=center;" vertex="1" parent="1">
          <mxGeometry x="420" y="10" width="40" height="30" as="geometry" />
        </mxCell>
        <mxCell id="uQmgaDGms-oXDXlYxXr7-14" style="edgeStyle=orthogonalEdgeStyle;rounded=0;orthogonalLoop=1;jettySize=auto;html=1;exitX=1;exitY=0.25;exitDx=0;exitDy=0;entryX=0;entryY=0.25;entryDx=0;entryDy=0;" edge="1" parent="1" source="uQmgaDGms-oXDXlYxXr7-4" target="uQmgaDGms-oXDXlYxXr7-5">
          <mxGeometry relative="1" as="geometry" />
        </mxCell>
        <mxCell id="uQmgaDGms-oXDXlYxXr7-4" value="WordPress Service" style="rounded=1;whiteSpace=wrap;html=1;" vertex="1" parent="1">
          <mxGeometry x="310" y="80" width="140" height="30" as="geometry" />
        </mxCell>
        <mxCell id="uQmgaDGms-oXDXlYxXr7-5" value="WordPress Pods" style="rounded=1;whiteSpace=wrap;html=1;" vertex="1" parent="1">
          <mxGeometry x="520" y="80" width="140" height="30" as="geometry" />
        </mxCell>
        <mxCell id="uQmgaDGms-oXDXlYxXr7-6" value="MariaDB Service" style="rounded=1;whiteSpace=wrap;html=1;" vertex="1" parent="1">
          <mxGeometry x="720" y="80" width="140" height="30" as="geometry" />
        </mxCell>
        <mxCell id="uQmgaDGms-oXDXlYxXr7-7" value="MariaDB Pods" style="rounded=1;whiteSpace=wrap;html=1;" vertex="1" parent="1">
          <mxGeometry x="720" y="200" width="140" height="30" as="geometry" />
        </mxCell>
        <mxCell id="uQmgaDGms-oXDXlYxXr7-8" value="PVCs" style="rounded=1;whiteSpace=wrap;html=1;" vertex="1" parent="1">
          <mxGeometry x="521.25" y="200" width="140" height="30" as="geometry" />
        </mxCell>
        <mxCell id="uQmgaDGms-oXDXlYxXr7-9" value="" style="ellipse;shape=cloud;whiteSpace=wrap;html=1;" vertex="1" parent="1">
          <mxGeometry x="430" y="90" width="40" height="30" as="geometry" />
        </mxCell>
        <mxCell id="uQmgaDGms-oXDXlYxXr7-10" value="" style="aspect=fixed;sketch=0;html=1;dashed=0;whitespace=wrap;fillColor=#2875E2;strokeColor=#ffffff;points=[[0.005,0.63,0],[0.1,0.2,0],[0.9,0.2,0],[0.5,0,0],[0.995,0.63,0],[0.72,0.99,0],[0.5,1,0],[0.28,0.99,0]];shape=mxgraph.kubernetes.icon2;prIcon=pod" vertex="1" parent="1">
          <mxGeometry x="640" y="90" width="31.25" height="30" as="geometry" />
        </mxCell>
        <mxCell id="uQmgaDGms-oXDXlYxXr7-11" value="" style="image;aspect=fixed;perimeter=ellipsePerimeter;html=1;align=center;shadow=0;dashed=0;spacingTop=3;image=img/lib/active_directory/databases.svg;" vertex="1" parent="1">
          <mxGeometry x="850" y="90" width="30.61" height="30" as="geometry" />
        </mxCell>
        <mxCell id="uQmgaDGms-oXDXlYxXr7-12" value="" style="image;aspect=fixed;perimeter=ellipsePerimeter;html=1;align=center;shadow=0;dashed=0;spacingTop=3;image=img/lib/active_directory/databases.svg;" vertex="1" parent="1">
          <mxGeometry x="844" y="210" width="30.61" height="30" as="geometry" />
        </mxCell>
        <mxCell id="uQmgaDGms-oXDXlYxXr7-13" value="" style="aspect=fixed;sketch=0;html=1;dashed=0;whitespace=wrap;fillColor=#2875E2;strokeColor=#ffffff;points=[[0.005,0.63,0],[0.1,0.2,0],[0.9,0.2,0],[0.5,0,0],[0.995,0.63,0],[0.72,0.99,0],[0.5,1,0],[0.28,0.99,0]];shape=mxgraph.kubernetes.icon2;prIcon=pvc" vertex="1" parent="1">
          <mxGeometry x="640" y="210" width="31.25" height="30" as="geometry" />
        </mxCell>
        <mxCell id="uQmgaDGms-oXDXlYxXr7-17" value="" style="endArrow=none;dashed=1;html=1;dashPattern=1 3;strokeWidth=2;rounded=0;entryX=0;entryY=0.25;entryDx=0;entryDy=0;exitX=1;exitY=0.25;exitDx=0;exitDy=0;" edge="1" parent="1" source="uQmgaDGms-oXDXlYxXr7-5" target="uQmgaDGms-oXDXlYxXr7-6">
          <mxGeometry width="50" height="50" relative="1" as="geometry">
            <mxPoint x="390" y="350" as="sourcePoint" />
            <mxPoint x="440" y="300" as="targetPoint" />
          </mxGeometry>
        </mxCell>
        <mxCell id="uQmgaDGms-oXDXlYxXr7-20" value="" style="endArrow=none;html=1;rounded=0;entryX=0.75;entryY=1;entryDx=0;entryDy=0;exitX=0.75;exitY=0;exitDx=0;exitDy=0;" edge="1" parent="1" source="uQmgaDGms-oXDXlYxXr7-7" target="uQmgaDGms-oXDXlYxXr7-6">
          <mxGeometry width="50" height="50" relative="1" as="geometry">
            <mxPoint x="390" y="350" as="sourcePoint" />
            <mxPoint x="440" y="300" as="targetPoint" />
          </mxGeometry>
        </mxCell>
        <mxCell id="uQmgaDGms-oXDXlYxXr7-24" value="" style="shape=link;html=1;rounded=0;entryX=0.25;entryY=1;entryDx=0;entryDy=0;exitX=0.25;exitY=0;exitDx=0;exitDy=0;" edge="1" parent="1" source="uQmgaDGms-oXDXlYxXr7-8" target="uQmgaDGms-oXDXlYxXr7-5">
          <mxGeometry width="100" relative="1" as="geometry">
            <mxPoint x="520" y="170" as="sourcePoint" />
            <mxPoint x="620" y="170" as="targetPoint" />
          </mxGeometry>
        </mxCell>
        <mxCell id="uQmgaDGms-oXDXlYxXr7-25" value="" style="shape=link;html=1;rounded=0;entryX=0;entryY=1;entryDx=0;entryDy=0;exitX=0.75;exitY=0;exitDx=0;exitDy=0;" edge="1" parent="1" source="uQmgaDGms-oXDXlYxXr7-8" target="uQmgaDGms-oXDXlYxXr7-6">
          <mxGeometry width="100" relative="1" as="geometry">
            <mxPoint x="605.63" y="170" as="sourcePoint" />
            <mxPoint x="705.63" y="170" as="targetPoint" />
          </mxGeometry>
        </mxCell>
        <mxCell id="uQmgaDGms-oXDXlYxXr7-29" value="Namespace: WordPress" style="text;html=1;align=center;verticalAlign=middle;whiteSpace=wrap;rounded=0;" vertex="1" parent="1">
          <mxGeometry x="520" width="160" height="30" as="geometry" />
        </mxCell>
        <mxCell id="uQmgaDGms-oXDXlYxXr7-79" style="edgeStyle=orthogonalEdgeStyle;rounded=0;orthogonalLoop=1;jettySize=auto;html=1;exitX=0;exitY=0.5;exitDx=0;exitDy=0;" edge="1" parent="1" source="uQmgaDGms-oXDXlYxXr7-32" target="uQmgaDGms-oXDXlYxXr7-78">
          <mxGeometry relative="1" as="geometry" />
        </mxCell>
        <mxCell id="uQmgaDGms-oXDXlYxXr7-32" value="" style="rounded=1;whiteSpace=wrap;html=1;" vertex="1" parent="1">
          <mxGeometry x="290" y="260" width="620" height="260" as="geometry" />
        </mxCell>
        <mxCell id="uQmgaDGms-oXDXlYxXr7-33" value="Namespace: MediaWiki" style="text;html=1;align=center;verticalAlign=middle;whiteSpace=wrap;rounded=0;" vertex="1" parent="1">
          <mxGeometry x="520" y="270" width="160" height="30" as="geometry" />
        </mxCell>
        <mxCell id="uQmgaDGms-oXDXlYxXr7-34" value="Helm Release" style="rounded=1;whiteSpace=wrap;html=1;" vertex="1" parent="1">
          <mxGeometry x="305" y="290" width="140" height="30" as="geometry" />
        </mxCell>
        <mxCell id="uQmgaDGms-oXDXlYxXr7-35" value="" style="shape=mxgraph.signs.transportation.anchor_1;html=1;pointerEvents=1;fillColor=#000000;strokeColor=none;verticalLabelPosition=bottom;verticalAlign=top;align=center;" vertex="1" parent="1">
          <mxGeometry x="415" y="300" width="40" height="30" as="geometry" />
        </mxCell>
        <mxCell id="uQmgaDGms-oXDXlYxXr7-58" style="edgeStyle=orthogonalEdgeStyle;rounded=0;orthogonalLoop=1;jettySize=auto;html=1;exitX=1;exitY=0.25;exitDx=0;exitDy=0;entryX=0;entryY=0.25;entryDx=0;entryDy=0;" edge="1" parent="1" source="uQmgaDGms-oXDXlYxXr7-36" target="uQmgaDGms-oXDXlYxXr7-39">
          <mxGeometry relative="1" as="geometry" />
        </mxCell>
        <mxCell id="uQmgaDGms-oXDXlYxXr7-36" value="WordPress Service" style="rounded=1;whiteSpace=wrap;html=1;" vertex="1" parent="1">
          <mxGeometry x="305" y="370" width="140" height="30" as="geometry" />
        </mxCell>
        <mxCell id="uQmgaDGms-oXDXlYxXr7-37" value="" style="ellipse;shape=cloud;whiteSpace=wrap;html=1;" vertex="1" parent="1">
          <mxGeometry x="425" y="380" width="40" height="30" as="geometry" />
        </mxCell>
        <mxCell id="uQmgaDGms-oXDXlYxXr7-39" value="MediaWiki Pods" style="rounded=1;whiteSpace=wrap;html=1;" vertex="1" parent="1">
          <mxGeometry x="508.75" y="370" width="140" height="30" as="geometry" />
        </mxCell>
        <mxCell id="uQmgaDGms-oXDXlYxXr7-40" value="" style="aspect=fixed;sketch=0;html=1;dashed=0;whitespace=wrap;fillColor=#2875E2;strokeColor=#ffffff;points=[[0.005,0.63,0],[0.1,0.2,0],[0.9,0.2,0],[0.5,0,0],[0.995,0.63,0],[0.72,0.99,0],[0.5,1,0],[0.28,0.99,0]];shape=mxgraph.kubernetes.icon2;prIcon=pod" vertex="1" parent="1">
          <mxGeometry x="628.75" y="380" width="31.25" height="30" as="geometry" />
        </mxCell>
        <mxCell id="uQmgaDGms-oXDXlYxXr7-45" value="MariaDB Service" style="rounded=1;whiteSpace=wrap;html=1;" vertex="1" parent="1">
          <mxGeometry x="720" y="370" width="140" height="30" as="geometry" />
        </mxCell>
        <mxCell id="uQmgaDGms-oXDXlYxXr7-46" value="" style="image;aspect=fixed;perimeter=ellipsePerimeter;html=1;align=center;shadow=0;dashed=0;spacingTop=3;image=img/lib/active_directory/databases.svg;" vertex="1" parent="1">
          <mxGeometry x="850" y="380" width="30.61" height="30" as="geometry" />
        </mxCell>
        <mxCell id="uQmgaDGms-oXDXlYxXr7-47" value="PVCs" style="rounded=1;whiteSpace=wrap;html=1;" vertex="1" parent="1">
          <mxGeometry x="498.75" y="460" width="140" height="30" as="geometry" />
        </mxCell>
        <mxCell id="uQmgaDGms-oXDXlYxXr7-48" value="" style="aspect=fixed;sketch=0;html=1;dashed=0;whitespace=wrap;fillColor=#2875E2;strokeColor=#ffffff;points=[[0.005,0.63,0],[0.1,0.2,0],[0.9,0.2,0],[0.5,0,0],[0.995,0.63,0],[0.72,0.99,0],[0.5,1,0],[0.28,0.99,0]];shape=mxgraph.kubernetes.icon2;prIcon=pvc" vertex="1" parent="1">
          <mxGeometry x="617.5" y="470" width="31.25" height="30" as="geometry" />
        </mxCell>
        <mxCell id="uQmgaDGms-oXDXlYxXr7-53" value="MariaDB Pods" style="rounded=1;whiteSpace=wrap;html=1;" vertex="1" parent="1">
          <mxGeometry x="726" y="460" width="140" height="30" as="geometry" />
        </mxCell>
        <mxCell id="uQmgaDGms-oXDXlYxXr7-54" value="" style="image;aspect=fixed;perimeter=ellipsePerimeter;html=1;align=center;shadow=0;dashed=0;spacingTop=3;image=img/lib/active_directory/databases.svg;" vertex="1" parent="1">
          <mxGeometry x="850" y="470" width="30.61" height="30" as="geometry" />
        </mxCell>
        <mxCell id="uQmgaDGms-oXDXlYxXr7-55" value="" style="shape=link;html=1;rounded=0;entryX=0;entryY=1;entryDx=0;entryDy=0;exitX=0.75;exitY=0;exitDx=0;exitDy=0;" edge="1" parent="1" target="uQmgaDGms-oXDXlYxXr7-45">
          <mxGeometry width="100" relative="1" as="geometry">
            <mxPoint x="610" y="460" as="sourcePoint" />
            <mxPoint x="704" y="370" as="targetPoint" />
          </mxGeometry>
        </mxCell>
        <mxCell id="uQmgaDGms-oXDXlYxXr7-56" value="" style="shape=link;html=1;rounded=0;exitX=0.25;exitY=0;exitDx=0;exitDy=0;" edge="1" parent="1" source="uQmgaDGms-oXDXlYxXr7-47">
          <mxGeometry width="100" relative="1" as="geometry">
            <mxPoint x="615" y="470" as="sourcePoint" />
            <mxPoint x="530" y="401" as="targetPoint" />
          </mxGeometry>
        </mxCell>
        <mxCell id="uQmgaDGms-oXDXlYxXr7-57" value="" style="endArrow=none;html=1;rounded=0;entryX=0.75;entryY=1;entryDx=0;entryDy=0;" edge="1" parent="1">
          <mxGeometry width="50" height="50" relative="1" as="geometry">
            <mxPoint x="820" y="460" as="sourcePoint" />
            <mxPoint x="820" y="400" as="targetPoint" />
          </mxGeometry>
        </mxCell>
        <mxCell id="uQmgaDGms-oXDXlYxXr7-59" value="" style="endArrow=none;dashed=1;html=1;dashPattern=1 3;strokeWidth=2;rounded=0;entryX=0;entryY=0.25;entryDx=0;entryDy=0;exitX=1;exitY=0.25;exitDx=0;exitDy=0;" edge="1" parent="1" target="uQmgaDGms-oXDXlYxXr7-45">
          <mxGeometry width="50" height="50" relative="1" as="geometry">
            <mxPoint x="648.75" y="379" as="sourcePoint" />
            <mxPoint x="708.75" y="379" as="targetPoint" />
          </mxGeometry>
        </mxCell>
        <mxCell id="uQmgaDGms-oXDXlYxXr7-60" value="" style="rounded=1;whiteSpace=wrap;html=1;" vertex="1" parent="1">
          <mxGeometry x="290" y="530" width="630" height="180" as="geometry" />
        </mxCell>
        <mxCell id="uQmgaDGms-oXDXlYxXr7-61" value="JIRA Deployment" style="rounded=1;whiteSpace=wrap;html=1;" vertex="1" parent="1">
          <mxGeometry x="325" y="555" width="140" height="30" as="geometry" />
        </mxCell>
        <mxCell id="uQmgaDGms-oXDXlYxXr7-62" value="JIRA Pods" style="rounded=1;whiteSpace=wrap;html=1;" vertex="1" parent="1">
          <mxGeometry x="510" y="555" width="140" height="30" as="geometry" />
        </mxCell>
        <mxCell id="uQmgaDGms-oXDXlYxXr7-63" value="PVCs" style="rounded=1;whiteSpace=wrap;html=1;" vertex="1" parent="1">
          <mxGeometry x="638.75" y="645" width="140" height="30" as="geometry" />
        </mxCell>
        <mxCell id="uQmgaDGms-oXDXlYxXr7-74" style="edgeStyle=orthogonalEdgeStyle;rounded=0;orthogonalLoop=1;jettySize=auto;html=1;exitX=0.75;exitY=0;exitDx=0;exitDy=0;entryX=0;entryY=1;entryDx=0;entryDy=0;" edge="1" parent="1" source="uQmgaDGms-oXDXlYxXr7-64" target="uQmgaDGms-oXDXlYxXr7-62">
          <mxGeometry relative="1" as="geometry" />
        </mxCell>
        <mxCell id="uQmgaDGms-oXDXlYxXr7-64" value="PostgresSQL" style="rounded=1;whiteSpace=wrap;html=1;arcSize=27;" vertex="1" parent="1">
          <mxGeometry x="400" y="640" width="140" height="30" as="geometry" />
        </mxCell>
        <mxCell id="uQmgaDGms-oXDXlYxXr7-72" style="edgeStyle=orthogonalEdgeStyle;rounded=0;orthogonalLoop=1;jettySize=auto;html=1;exitX=0;exitY=0.25;exitDx=0;exitDy=0;entryX=1;entryY=0.5;entryDx=0;entryDy=0;" edge="1" parent="1" source="uQmgaDGms-oXDXlYxXr7-65" target="uQmgaDGms-oXDXlYxXr7-62">
          <mxGeometry relative="1" as="geometry" />
        </mxCell>
        <mxCell id="uQmgaDGms-oXDXlYxXr7-65" value="JIRA Service" style="rounded=1;whiteSpace=wrap;html=1;" vertex="1" parent="1">
          <mxGeometry x="710" y="555" width="140" height="30" as="geometry" />
        </mxCell>
        <mxCell id="uQmgaDGms-oXDXlYxXr7-67" value="" style="image;aspect=fixed;perimeter=ellipsePerimeter;html=1;align=center;shadow=0;dashed=0;spacingTop=3;image=img/lib/active_directory/databases.svg;" vertex="1" parent="1">
          <mxGeometry x="520" y="650" width="30.61" height="30" as="geometry" />
        </mxCell>
        <mxCell id="uQmgaDGms-oXDXlYxXr7-68" value="" style="aspect=fixed;sketch=0;html=1;dashed=0;whitespace=wrap;fillColor=#2875E2;strokeColor=#ffffff;points=[[0.005,0.63,0],[0.1,0.2,0],[0.9,0.2,0],[0.5,0,0],[0.995,0.63,0],[0.72,0.99,0],[0.5,1,0],[0.28,0.99,0]];shape=mxgraph.kubernetes.icon2;prIcon=pvc" vertex="1" parent="1">
          <mxGeometry x="764.38" y="650" width="31.25" height="30" as="geometry" />
        </mxCell>
        <mxCell id="uQmgaDGms-oXDXlYxXr7-69" value="" style="aspect=fixed;sketch=0;html=1;dashed=0;whitespace=wrap;fillColor=#2875E2;strokeColor=#ffffff;points=[[0.005,0.63,0],[0.1,0.2,0],[0.9,0.2,0],[0.5,0,0],[0.995,0.63,0],[0.72,0.99,0],[0.5,1,0],[0.28,0.99,0]];shape=mxgraph.kubernetes.icon2;prIcon=pod" vertex="1" parent="1">
          <mxGeometry x="630" y="570" width="31.25" height="30" as="geometry" />
        </mxCell>
        <mxCell id="uQmgaDGms-oXDXlYxXr7-70" value="" style="image;aspect=fixed;perimeter=ellipsePerimeter;html=1;align=center;shadow=0;dashed=0;spacingTop=3;image=img/lib/active_directory/databases.svg;" vertex="1" parent="1">
          <mxGeometry x="835.39" y="570" width="30.61" height="30" as="geometry" />
        </mxCell>
        <mxCell id="uQmgaDGms-oXDXlYxXr7-71" value="" style="aspect=fixed;sketch=0;html=1;dashed=0;whitespace=wrap;fillColor=#2875E2;strokeColor=#ffffff;points=[[0.005,0.63,0],[0.1,0.2,0],[0.9,0.2,0],[0.5,0,0],[0.995,0.63,0],[0.72,0.99,0],[0.5,1,0],[0.28,0.99,0]];shape=mxgraph.kubernetes.icon2;prIcon=deploy" vertex="1" parent="1">
          <mxGeometry x="445" y="570" width="30.21" height="29" as="geometry" />
        </mxCell>
        <mxCell id="uQmgaDGms-oXDXlYxXr7-73" value="" style="endArrow=none;dashed=1;html=1;dashPattern=1 3;strokeWidth=2;rounded=0;entryX=0.079;entryY=0.942;entryDx=0;entryDy=0;exitX=0.829;exitY=0.008;exitDx=0;exitDy=0;entryPerimeter=0;exitPerimeter=0;" edge="1" parent="1" source="uQmgaDGms-oXDXlYxXr7-64" target="uQmgaDGms-oXDXlYxXr7-62">
          <mxGeometry width="50" height="50" relative="1" as="geometry">
            <mxPoint x="470" y="620.37" as="sourcePoint" />
            <mxPoint x="541.25" y="619.37" as="targetPoint" />
          </mxGeometry>
        </mxCell>
        <mxCell id="uQmgaDGms-oXDXlYxXr7-75" value="" style="shape=link;html=1;rounded=0;" edge="1" parent="1">
          <mxGeometry width="100" relative="1" as="geometry">
            <mxPoint x="538.75" y="650" as="sourcePoint" />
            <mxPoint x="638.75" y="650" as="targetPoint" />
          </mxGeometry>
        </mxCell>
        <mxCell id="uQmgaDGms-oXDXlYxXr7-76" value="" style="shape=link;html=1;rounded=0;entryX=0.75;entryY=1;entryDx=0;entryDy=0;" edge="1" parent="1" source="uQmgaDGms-oXDXlYxXr7-63" target="uQmgaDGms-oXDXlYxXr7-62">
          <mxGeometry width="100" relative="1" as="geometry">
            <mxPoint x="548.75" y="660" as="sourcePoint" />
            <mxPoint x="648.75" y="660" as="targetPoint" />
          </mxGeometry>
        </mxCell>
        <mxCell id="uQmgaDGms-oXDXlYxXr7-78" value="Ingress-Controller" style="rounded=1;whiteSpace=wrap;html=1;" vertex="1" parent="1">
          <mxGeometry x="-300" y="-100" width="140" height="50" as="geometry" />
        </mxCell>
        <mxCell id="uQmgaDGms-oXDXlYxXr7-81" style="edgeStyle=orthogonalEdgeStyle;rounded=0;orthogonalLoop=1;jettySize=auto;html=1;exitX=0;exitY=0.5;exitDx=0;exitDy=0;entryX=0.91;entryY=1.086;entryDx=0;entryDy=0;entryPerimeter=0;" edge="1" parent="1" source="uQmgaDGms-oXDXlYxXr7-28" target="uQmgaDGms-oXDXlYxXr7-78">
          <mxGeometry relative="1" as="geometry" />
        </mxCell>
        <mxCell id="uQmgaDGms-oXDXlYxXr7-82" style="edgeStyle=orthogonalEdgeStyle;rounded=0;orthogonalLoop=1;jettySize=auto;html=1;exitX=0;exitY=0.5;exitDx=0;exitDy=0;entryX=0.184;entryY=1.062;entryDx=0;entryDy=0;entryPerimeter=0;" edge="1" parent="1" source="uQmgaDGms-oXDXlYxXr7-60" target="uQmgaDGms-oXDXlYxXr7-78">
          <mxGeometry relative="1" as="geometry" />
        </mxCell>
        <mxCell id="uQmgaDGms-oXDXlYxXr7-85" value="Namespace: JIRA" style="text;html=1;align=center;verticalAlign=middle;whiteSpace=wrap;rounded=0;" vertex="1" parent="1">
          <mxGeometry x="511.25" y="675" width="160" height="30" as="geometry" />
        </mxCell>
        <mxCell id="uQmgaDGms-oXDXlYxXr7-86" value="Node" style="text;html=1;align=center;verticalAlign=middle;whiteSpace=wrap;rounded=0;" vertex="1" parent="1">
          <mxGeometry x="200" y="-150" width="160" height="30" as="geometry" />
        </mxCell>
        <mxCell id="uQmgaDGms-oXDXlYxXr7-92" style="edgeStyle=orthogonalEdgeStyle;rounded=0;orthogonalLoop=1;jettySize=auto;html=1;exitX=0.5;exitY=1;exitDx=0;exitDy=0;exitPerimeter=0;" edge="1" parent="1" source="uQmgaDGms-oXDXlYxXr7-88" target="uQmgaDGms-oXDXlYxXr7-90">
          <mxGeometry relative="1" as="geometry" />
        </mxCell>
        <mxCell id="uQmgaDGms-oXDXlYxXr7-88" value="" style="sketch=0;aspect=fixed;pointerEvents=1;shadow=0;dashed=0;html=1;strokeColor=none;labelPosition=center;verticalLabelPosition=bottom;verticalAlign=top;align=center;fillColor=#00188D;shape=mxgraph.mscae.enterprise.internet" vertex="1" parent="1">
          <mxGeometry x="-320" y="-660" width="100" height="62" as="geometry" />
        </mxCell>
        <mxCell id="uQmgaDGms-oXDXlYxXr7-89" value="Useranfragen" style="text;html=1;align=center;verticalAlign=middle;whiteSpace=wrap;rounded=0;" vertex="1" parent="1">
          <mxGeometry x="-200" y="-630" width="120" height="30" as="geometry" />
        </mxCell>
        <mxCell id="uQmgaDGms-oXDXlYxXr7-90" value="" style="verticalLabelPosition=bottom;sketch=0;aspect=fixed;html=1;verticalAlign=top;strokeColor=none;align=center;outlineConnect=0;shape=mxgraph.citrix.dns_server;" vertex="1" parent="1">
          <mxGeometry x="-308.25" y="-522.5" width="76.5" height="92.5" as="geometry" />
        </mxCell>
        <mxCell id="uQmgaDGms-oXDXlYxXr7-91" value="DNS-Auflösung" style="text;html=1;align=center;verticalAlign=middle;whiteSpace=wrap;rounded=0;" vertex="1" parent="1">
          <mxGeometry x="-200" y="-480" width="120" height="30" as="geometry" />
        </mxCell>
        <mxCell id="uQmgaDGms-oXDXlYxXr7-93" value="" style="sketch=0;html=1;aspect=fixed;strokeColor=none;shadow=0;fillColor=#3B8DF1;verticalAlign=top;labelPosition=center;verticalLabelPosition=bottom;shape=mxgraph.gcp2.load_balancing" vertex="1" parent="1">
          <mxGeometry x="-320" y="-300" width="100" height="26" as="geometry" />
        </mxCell>
        <mxCell id="uQmgaDGms-oXDXlYxXr7-94" value="Cloud-Provider Load Balancer" style="text;html=1;align=center;verticalAlign=middle;whiteSpace=wrap;rounded=0;" vertex="1" parent="1">
          <mxGeometry x="-200" y="-304" width="120" height="30" as="geometry" />
        </mxCell>
        <mxCell id="uQmgaDGms-oXDXlYxXr7-95" style="edgeStyle=orthogonalEdgeStyle;rounded=0;orthogonalLoop=1;jettySize=auto;html=1;exitX=0.5;exitY=1;exitDx=0;exitDy=0;exitPerimeter=0;entryX=0.478;entryY=0.077;entryDx=0;entryDy=0;entryPerimeter=0;" edge="1" parent="1" target="uQmgaDGms-oXDXlYxXr7-93">
          <mxGeometry relative="1" as="geometry">
            <mxPoint x="-270.77" y="-480" as="sourcePoint" />
            <mxPoint x="-270.77" y="-442" as="targetPoint" />
          </mxGeometry>
        </mxCell>
        <mxCell id="uQmgaDGms-oXDXlYxXr7-96" style="edgeStyle=orthogonalEdgeStyle;rounded=0;orthogonalLoop=1;jettySize=auto;html=1;exitX=0.5;exitY=1;exitDx=0;exitDy=0;exitPerimeter=0;" edge="1" parent="1" target="uQmgaDGms-oXDXlYxXr7-83">
          <mxGeometry relative="1" as="geometry">
            <mxPoint x="-270.77" y="-280" as="sourcePoint" />
            <mxPoint x="-270.77" y="-242" as="targetPoint" />
          </mxGeometry>
        </mxCell>
        <mxCell id="uQmgaDGms-oXDXlYxXr7-97" style="edgeStyle=orthogonalEdgeStyle;rounded=0;orthogonalLoop=1;jettySize=auto;html=1;exitX=0.5;exitY=0;exitDx=0;exitDy=0;entryX=0.429;entryY=0;entryDx=0;entryDy=0;entryPerimeter=0;" edge="1" parent="1" source="uQmgaDGms-oXDXlYxXr7-83" target="uQmgaDGms-oXDXlYxXr7-78">
          <mxGeometry relative="1" as="geometry" />
        </mxCell>
      </root>
    </mxGraphModel>
  </diagram>
</mxfile>
